<svg xmlns:xlink="http://www.w3.org/1999/xlink" xmlns="http://www.w3.org/2000/svg" width="53" height="47" viewBox="0 0 53 47" fill="none"> <mask id="mask0_56_506" style="mask-type:alpha" maskUnits="userSpaceOnUse" x="18" y="0" width="35" height="41"> <path d="M42.78 0L18.3821 2.00531V12.5332V23.061V23.3952L34.4245 30.0796V38.435L45.1195 40.4403L52.1381 10.695L42.78 0Z" fill="#C4C4C4"/> </mask> <g mask="url(#mask0_56_506)"> <path d="M20.0539 22.4397V6.22967C23.3477 4.97308 26.9493 4.34479 30.8588 4.34479C36.1535 4.34479 40.3708 5.82477 43.5107 8.78474C46.589 11.6889 48.1282 15.5564 48.1282 20.3872C48.1282 25.2181 46.5428 29.0856 43.3722 31.9897C40.2015 34.9497 36.015 36.4297 30.8126 36.4297C26.8108 36.4297 23.6555 35.9271 21.3468 34.9218L21.9471 30.4818C24.1942 31.5988 27.1494 32.1573 30.8126 32.1573C34.599 32.1573 37.6003 31.0543 39.8167 28.8483C41.9715 26.726 43.0489 23.9057 43.0489 20.3872C43.0489 16.8409 42.0023 14.0066 39.9091 11.8843C37.7542 9.70623 34.7375 8.61719 30.8588 8.61719C28.3654 8.61719 26.4722 8.84058 25.1793 9.28737V18.1673H32.2902V22.4397H20.0539Z" fill="#326CF9"/> </g> <mask id="mask1_56_506" style="mask-type:alpha" maskUnits="userSpaceOnUse" x="0" y="6" width="34" height="41"> <path d="M9.35821 46.79L33.7561 44.7847V34.2569V23.729V23.3948L17.7137 16.7104V8.355L7.01869 6.3497L0.000118256 36.0951L9.35821 46.79Z" fill="#C4C4C4"/> </mask> <g mask="url(#mask1_56_506)"> <path d="M32.0858 24.3504V40.5604C28.792 41.817 25.1903 42.4453 21.2809 42.4453C15.9861 42.4453 11.7688 40.9653 8.62896 38.0053C5.55064 35.1012 4.01147 31.2337 4.01147 26.4028C4.01147 21.5719 5.59681 17.7044 8.76748 14.8003C11.9382 11.8403 16.1247 10.3604 21.327 10.3604C25.3288 10.3604 28.4841 10.863 30.7929 11.8683L30.1926 16.3082C27.9454 15.1912 24.9902 14.6328 21.327 14.6328C17.5407 14.6328 14.5393 15.7358 12.3229 17.9418C10.1681 20.064 9.0907 22.8844 9.0907 26.4028C9.0907 29.9492 10.1373 32.7835 12.2306 34.9057C14.3854 37.0838 17.4022 38.1729 21.2809 38.1729C23.7743 38.1729 25.6675 37.9495 26.9604 37.5027V28.6228H19.8494V24.3504H32.0858Z" fill="#326CF9"/> </g> </svg>